<svg xmlns="http://www.w3.org/2000/svg" viewBox="0 0 600 600">
  <!-- Background layers -->
  <defs>
    <linearGradient id="oceanGradient" x1="0%" y1="0%" x2="0%" y2="100%">
      <stop offset="0%" style="stop-color:#1c3b66;stop-opacity:1" />
      <stop offset="100%" style="stop-color:#4673a5;stop-opacity:1" />
    </linearGradient>
  </defs>
  
  <!-- Ocean waves background -->
  <path d="M0,200 C100,180 200,230 300,200 S500,150 600,200 V600 H0 Z" fill="url(#oceanGradient)" />
  <path d="M0,230 C100,210 200,260 300,230 S500,180 600,230 V600 H0 Z" fill="#3a5d8c" opacity="0.7" />
  <path d="M0,260 C100,240 200,290 300,260 S500,210 600,260 V600 H0 Z" fill="#2d4970" opacity="0.7" />
  <path d="M0,290 C100,270 200,320 300,290 S500,240 600,290 V600 H0 Z" fill="#203756" opacity="0.7" />
  <path d="M0,320 C100,300 200,350 300,320 S500,270 600,320 V600 H0 Z" fill="#152944" opacity="0.7" />
  <path d="M0,350 C100,330 200,380 300,350 S500,300 600,350 V600 H0 Z" fill="#0d1b2e" opacity="0.7" />
  
  <!-- Planets -->
  <circle cx="500" cy="150" r="30" fill="#e74c3c" />
  <circle cx="150" cy="100" r="20" fill="#f1c40f" />
  <circle cx="400" cy="80" r="15" fill="#3498db" />
  <circle cx="250" cy="50" r="10" fill="#9b59b6" />
  <circle cx="550" cy="60" r="25" fill="#e67e22" />
  
  <!-- Stars -->
  <g fill="#ffffff">
    <circle cx="50" cy="50" r="2" />
    <circle cx="100" cy="30" r="1" />
    <circle cx="200" cy="70" r="1.5" />
    <circle cx="300" cy="40" r="1" />
    <circle cx="350" cy="120" r="2" />
    <circle cx="450" cy="30" r="1.5" />
    <circle cx="500" cy="90" r="1" />
    <circle cx="580" cy="120" r="2" />
    <circle cx="120" cy="150" r="1" />
    <circle cx="220" cy="120" r="1.5" />
    <circle cx="320" cy="170" r="1" />
    <circle cx="420" cy="150" r="1.5" />
    <circle cx="520" cy="200" r="1" />
    <circle cx="70" cy="190" r="2" />
  </g>
  
  <!-- Rocket body -->
  <path d="M300,120 L320,280 L280,280 Z" fill="white" />
  <rect x="280" y="280" width="40" height="60" fill="white" />
  
  <!-- Rocket window -->
  <circle cx="300" cy="250" r="8" fill="#3498db" />
  
  <!-- Rocket fins -->
  <path d="M280,280 L260,310 L280,340 Z" fill="#e74c3c" />
  <path d="M320,280 L340,310 L320,340 Z" fill="#e74c3c" />
  
  <!-- Rocket flames -->
  <path d="M290,340 L300,390 L310,340 Z" fill="#f39c12" />
  <path d="M295,340 L300,370 L305,340 Z" fill="#e67e22" />
  <path d="M297,340 L300,360 L303,340 Z" fill="#d35400" />
</svg>